HIERARCHY
ROOT Hips
{
    OFFSET 0.000000 0.000000 0.000000
    CHANNELS 6 Xposition Yposition Zposition Zrotation Xrotation Yrotation
    JOINT Spine
    {
        OFFSET -0.000000 14.517291 0.000000
        CHANNELS 3 Zrotation Xrotation Yrotation
        JOINT Spine1
        {
            OFFSET -0.000000 37.558300 0.000000
            CHANNELS 3 Zrotation Xrotation Yrotation
            JOINT Neck
            {
                OFFSET -0.000000 37.404057 3.400369
                CHANNELS 3 Zrotation Xrotation Yrotation
                JOINT Head
                {
                    OFFSET -0.000000 24.785618 -3.540803
                    CHANNELS 3 Zrotation Xrotation Yrotation
                    End Site
                    {
                        OFFSET -0.000000 35.408028 0.000000
                    }
                }
            }
            JOINT LeftShoulder
            {
                OFFSET 6.992933 33.973492 -0.192664
                CHANNELS 3 Zrotation Xrotation Yrotation
                JOINT LeftArm
                {
                    OFFSET 21.527611 0.000000 0.000000
                    CHANNELS 3 Zrotation Xrotation Yrotation
                    JOINT LeftForeArm
                    {
                        OFFSET 56.353916 0.000000 0.000000
                        CHANNELS 3 Zrotation Xrotation Yrotation
                        JOINT LeftHand
                        {
                            OFFSET 47.774071 0.000000 0.000000
                            CHANNELS 3 Zrotation Xrotation Yrotation
                            End Site
                            {
                                OFFSET 26.556021 0.000000 0.000000
                            }
                        }
                    }
                }
            }
            JOINT RightShoulder
            {
                OFFSET -7.065357 33.973492 -0.192664
                CHANNELS 3 Zrotation Xrotation Yrotation
                JOINT RightArm
                {
                    OFFSET -21.527611 0.000000 0.000000
                    CHANNELS 3 Zrotation Xrotation Yrotation
                    JOINT RightForeArm
                    {
                        OFFSET -56.353916 0.000000 0.000000
                        CHANNELS 3 Zrotation Xrotation Yrotation
                        JOINT RightHand
                        {
                            OFFSET -47.774071 0.000000 0.000000
                            CHANNELS 3 Zrotation Xrotation Yrotation
                            End Site
                            {
                                OFFSET -26.556021 0.000000 0.000000
                            }
                        }
                    }
                }
            }
        }
    }
    JOINT LeftUpLeg
    {
        OFFSET 17.704014 0.000000 0.000000
        CHANNELS 3 Zrotation Xrotation Yrotation
        JOINT LeftLeg
        {
            OFFSET -0.000000 -81.181816 0.000000
            CHANNELS 3 Zrotation Xrotation Yrotation
            JOINT LeftFoot
            {
                OFFSET -0.000000 -62.821102 0.000000
                CHANNELS 3 Zrotation Xrotation Yrotation
                JOINT LeftToeBase
                {
                    OFFSET -0.000000 -11.507608 26.556021
                    CHANNELS 3 Zrotation Xrotation Yrotation
                    End Site
                    {
                        OFFSET -0.000000 0.000000 7.081605
                    }
                }
            }
        }
    }
    JOINT RightUpLeg
    {
        OFFSET -17.704014 0.000000 0.000000
        CHANNELS 3 Zrotation Xrotation Yrotation
        JOINT RightLeg
        {
            OFFSET -0.000000 -81.181816 0.000000
            CHANNELS 3 Zrotation Xrotation Yrotation
            JOINT RightFoot
            {
                OFFSET -0.000000 -62.821102 0.000000
                CHANNELS 3 Zrotation Xrotation Yrotation
                JOINT RightToeBase
                {
                    OFFSET -0.000000 -11.507608 26.556021
                    CHANNELS 3 Zrotation Xrotation Yrotation
                    End Site
                    {
                        OFFSET -0.000000 0.000000 7.081605
                    }
                }
            }
        }
    }
}
MOTION
Frames:    11
Frame Time:    0.008333
9.654371    150.308517    -107.855118    -1.542980    -5.524056    17.568779    0.987855    1.831213    3.687189    -3.676034    1.767833    1.291988    4.599198    1.601980    -12.138538    10.977725    5.186845    -12.210755    4.254723    7.683324    -15.246950    -26.522078    22.985809    -55.283478    -4.115661    -4.631620    -103.140175    12.098794    -10.828805    -10.016969    -10.173216    -1.253696    1.939414    26.537550    -23.724091    59.313057    -17.753506    -10.469949    60.186760    -2.830469    -1.132070    39.020775    10.840289    -1.234969    -18.390499    -9.315001    43.630981    -28.221245    18.719259    -33.210434    46.558853    0.000000    0.000000    0.000000    -13.718290    -23.018951    -3.555448    7.698341    16.569075    -7.390880    5.256859    12.928777    -13.811306    0.000000    0.000000    0.000000    
9.605900    150.327240    -107.850876    -1.509804    -5.524076    17.649828    0.938353    1.842995    3.652755    -3.658925    1.779451    1.280378    4.573617    1.606522    -12.155534    11.019927    5.169412    -12.219201    4.253069    7.687085    -15.243317    -26.487206    22.989023    -55.317936    -4.102433    -4.707412    -103.137672    12.139057    -10.891390    -10.027878    -10.174534    -1.241904    1.927034    26.551558    -23.728846    59.330357    -17.779104    -10.509597    60.188770    -2.822253    -1.153829    39.035862    10.855740    -1.221315    -18.387239    -9.264331    43.542629    -28.284046    18.630428    -33.205265    46.474159    0.000000    0.000000    0.000000    -13.743579    -22.997587    -3.570224    7.691151    16.585428    -7.383928    5.217151    12.906334    -13.857465    0.000000    0.000000    0.000000    
9.556808    150.351456    -107.846832    -1.477319    -5.513053    17.746058    0.873105    1.847884    3.623348    -3.622968    1.788061    1.269931    4.585261    1.594895    -12.174172    11.000076    5.158611    -12.241603    4.249502    7.690861    -15.263297    -26.494102    22.963499    -55.334888    -4.063659    -4.741774    -103.115669    12.096021    -10.872901    -10.042138    -10.166059    -1.219165    1.897827    26.558853    -23.749548    59.342838    -17.800339    -10.542827    60.216629    -2.797494    -1.160049    39.014565    10.870756    -1.225209    -18.382723    -9.209191    43.454556    -28.350397    18.532145    -33.199501    46.371693    0.000000    0.000000    0.000000    -13.778987    -22.979647    -3.604036    7.689861    16.598532    -7.391632    5.180866    12.893819    -13.908281    0.000000    0.000000    0.000000    
9.499165    150.382309    -107.842491    -1.450319    -5.495232    17.857260    0.821446    1.841038    3.583014    -3.604472    1.805133    1.256400    4.570253    1.586513    -12.195349    11.027740    5.149912    -12.258584    4.241888    7.680683    -15.277565    -26.488026    22.948929    -55.340961    -4.053951    -4.777746    -103.109856    12.085455    -10.896639    -10.059236    -10.158896    -1.216428    1.881054    26.563869    -23.748901    59.337841    -17.821917    -10.590798    60.248707    -2.782166    -1.183157    38.997829    10.890509    -1.249007    -18.381281    -9.160604    43.376419    -28.417986    18.419554    -33.182732    46.288116    0.000000    0.000000    0.000000    -13.811947    -22.959173    -3.624760    7.679364    16.596857    -7.389207    5.177365    12.879282    -13.977732    0.000000    0.000000    0.000000    
9.427763    150.418823    -107.831657    -1.426972    -5.469787    18.005939    0.749636    1.826263    3.526109    -3.564244    1.825724    1.237015    4.566635    1.589808    -12.222969    11.044329    5.109620    -12.281381    4.244369    7.678172    -15.292807    -26.506317    22.903063    -55.360779    -4.049070    -4.768176    -103.091156    12.083195    -10.881822    -10.084371    -10.144714    -1.201800    1.839220    26.558372    -23.742741    59.346268    -17.859005    -10.655721    60.274559    -2.746837    -1.209243    39.008545    10.927026    -1.300784    -18.429268    -9.155489    43.306259    -28.494852    18.315155    -33.149632    46.225002    0.000000    0.000000    0.000000    -13.853756    -22.927322    -3.682582    7.679415    16.585503    -7.373592    5.159847    12.847344    -14.079075    0.000000    0.000000    0.000000    
9.349665    150.460205    -107.825661    -1.406816    -5.439522    18.172768    0.678347    1.821971    3.464034    -3.521157    1.822255    1.215127    4.543750    1.603236    -12.265758    11.081624    5.077110    -12.315763    4.238766    7.686173    -15.311346    -26.496582    22.917454    -55.351845    -3.584909    -5.122479    -102.925575    10.843076    -10.545053    -10.206422    -10.145174    -1.221938    1.819276    26.547939    -23.698683    59.296223    -17.907938    -10.735835    60.321503    -2.713871    -1.240333    39.033558    10.965792    -1.366655    -18.481703    -9.146485    43.231884    -28.524172    18.191154    -33.107933    46.105072    0.000000    0.000000    0.000000    -13.894926    -22.893770    -3.745292    7.667619    16.565239    -7.353550    5.177818    12.827056    -14.206244    0.000000    0.000000    0.000000    
9.313278    150.509888    -107.812836    -1.358372    -5.435173    18.375845    0.699766    1.877455    3.358868    -3.629066    1.786001    1.180899    4.540612    1.597017    -12.286406    11.124393    5.073796    -12.332768    4.261301    7.687451    -15.270591    -26.486366    22.927858    -55.384144    -3.582706    -5.157363    -102.941849    10.812803    -10.571457    -10.167742    -10.121630    -1.237685    1.813400    26.584160    -23.669655    59.266438    -17.920227    -10.783298    60.412132    -2.686516    -1.251249    38.992130    10.958435    -1.393051    -18.583755    -9.120852    43.145851    -28.548906    18.077286    -33.047752    46.004482    0.000000    0.000000    0.000000    -13.987491    -22.797773    -3.835042    7.676472    16.530148    -7.365483    5.169572    12.797051    -14.287072    0.000000    0.000000    0.000000    
9.217811    150.557526    -107.812187    -1.351065    -5.403358    18.577669    0.650392    1.885933    3.283399    -3.615355    1.770216    1.154797    4.540918    1.620899    -12.321462    11.164589    5.008060    -12.358229    4.287166    7.718954    -15.271890    -26.462559    22.901924    -55.471806    -3.575020    -5.210674    -102.891479    11.102062    -10.620708    -10.008362    -10.090715    -1.255470    1.790037    26.559717    -23.636971    59.217590    -17.984234    -10.848547    60.451199    -2.664819    -1.262757    38.978146    11.027400    -1.470584    -18.652769    -9.120214    43.046444    -28.611832    17.951300    -33.011063    45.896824    0.000000    0.000000    0.000000    -14.023981    -22.761381    -3.907365    7.667399    16.512644    -7.368231    5.176492    12.773801    -14.407263    0.000000    0.000000    0.000000    
9.115312    150.608414    -107.800255    -1.353174    -5.385863    18.810936    0.618068    1.898327    3.199217    -3.600147    1.763013    1.126100    4.539741    1.629135    -12.365617    11.179409    4.962741    -12.398066    4.303159    7.738905    -15.292500    -26.433025    22.900043    -55.529827    -3.531709    -5.307580    -102.873871    11.146177    -10.663775    -9.992842    -10.074823    -1.274141    1.765956    26.570614    -23.637070    59.161972    -18.000614    -10.881930    60.534889    -2.651496    -1.264286    38.979576    11.123254    -1.537037    -18.733761    -9.130487    42.926857    -28.642403    17.826439    -32.962486    45.754280    0.000000    0.000000    0.000000    -14.053244    -22.695971    -3.979708    7.667165    16.485773    -7.399673    5.191426    12.739393    -14.544088    0.000000    0.000000    0.000000    
9.007077    150.663300    -107.784180    -1.358217    -5.365929    19.049341    0.589004    1.904553    3.120881    -3.579928    1.765196    1.099637    4.501794    1.635439    -12.411365    11.240535    4.915421    -12.429950    4.311826    7.742164    -15.307510    -26.423071    22.883186    -55.574589    -3.516244    -5.358706    -102.865128    11.128171    -10.692667    -9.991158    -10.080535    -1.274600    1.726373    26.561073    -23.621021    59.107841    -18.064632    -10.952849    60.592335    -2.655786    -1.287089    38.977970    11.227756    -1.593500    -18.793581    -9.105026    42.778263    -28.713579    17.695368    -32.922386    45.606293    0.000000    0.000000    0.000000    -14.077950    -22.629675    -4.039137    7.659608    16.456253    -7.426401    5.226501    12.700516    -14.687951    0.000000    0.000000    0.000000    
8.890303    150.725418    -107.753944    -1.363505    -5.356333    19.322952    0.565771    1.907863    3.035846    -3.570393    1.785325    1.071633    4.477145    1.663591    -12.475319    11.302631    4.831450    -12.478055    4.329028    7.748934    -15.336677    -26.369497    22.896334    -55.620914    -3.449160    -5.498878    -102.882362    10.812252    -10.737636    -10.155687    -10.064262    -1.274749    1.669237    26.529644    -23.603975    59.051872    -18.153847    -11.025635    60.641483    -2.655938    -1.295754    38.944199    11.344365    -1.648643    -18.841761    -9.056532    42.629280    -28.787258    17.516737    -32.893768    45.400608    0.000000    0.000000    0.000000    -14.104286    -22.534483    -4.101223    7.665740    16.415691    -7.486105    5.241367    12.656979    -14.833524    0.000000    0.000000    0.000000    
